<?xml version="1.0" encoding="UTF-8" standalone="no"?>
<!-- Created with Inkscape (http://www.inkscape.org/) -->

<svg
   version="1.1"
   id="svg1"
   width="1920"
   height="1920"
   viewBox="0 0 1920 1920"
   sodipodi:docname="Logo_Principa_Invertido.svg"
   inkscape:version="1.4.3 (0d15f75, 2025-12-25)"
   xmlns:inkscape="http://www.inkscape.org/namespaces/inkscape"
   xmlns:sodipodi="http://sodipodi.sourceforge.net/DTD/sodipodi-0.dtd"
   xmlns="http://www.w3.org/2000/svg"
   xmlns:svg="http://www.w3.org/2000/svg">
  <sodipodi:namedview
     id="namedview1"
     pagecolor="#ffffff"
     bordercolor="#111111"
     borderopacity="1"
     inkscape:showpageshadow="0"
     inkscape:pageopacity="0"
     inkscape:pagecheckerboard="1"
     inkscape:deskcolor="#d1d1d1"
     inkscape:zoom="0.30885417"
     inkscape:cx="858.01012"
     inkscape:cy="960"
     inkscape:window-width="1440"
     inkscape:window-height="837"
     inkscape:window-x="-8"
     inkscape:window-y="-8"
     inkscape:window-maximized="1"
     inkscape:current-layer="g1"
     showguides="true">
    <inkscape:page
       x="0"
       y="0"
       inkscape:label="1"
       id="page1"
       width="1920"
       height="1920"
       margin="140.448 249.78667 126.12 262.22266"
       bleed="0" />
  </sodipodi:namedview>
  <defs
     id="defs1" />
  <g
     id="g1"
     inkscape:groupmode="layer"
     inkscape:label="1">
    <g
       id="group-MC6"
       transform="translate(-9.7133221,16.18887)">
      <path
         d="m 1547.7094,1522.36 c -18.8907,0 -36.1133,3.1666 -51.668,9.5 -15.5573,6.3333 -28.86,15.0586 -39.916,26.1679 -11.056,11.112 -19.6113,24.2227 -25.666,39.3321 -6.0573,15.112 -9.084,31.4453 -9.084,49 0,17.5573 3.0267,33.8906 9.084,49 6.0547,15.112 14.61,28.2513 25.666,39.4179 11.056,11.1667 24.3587,19.9167 39.916,26.25 15.5547,6.3334 32.7773,9.5 51.668,9.5 18.888,0 36.0834,-3.1666 51.582,-9.5 15.5014,-6.3333 28.75,-15.0833 39.75,-26.25 11,-11.1666 19.5267,-24.3059 25.584,-39.4179 6.0547,-15.1094 9.084,-31.4427 9.084,-49 0,-17.4427 -3.0293,-33.7201 -9.084,-48.8321 -6.0573,-15.1093 -14.584,-28.222 -25.584,-39.334 -11,-11.1093 -24.2486,-19.8593 -39.75,-26.25 -15.4986,-6.388 -32.694,-9.5839 -51.582,-9.5839 z m 0,46.5 c 10.776,0 20.3867,1.7793 28.832,5.3339 8.4427,3.5574 15.5841,8.6674 21.4161,15.334 5.8333,6.6667 10.3059,14.8054 13.4179,24.416 3.1094,9.6107 4.666,20.4161 4.666,32.4161 0,12.112 -1.5566,22.9746 -4.666,32.5839 -3.112,9.612 -7.5846,17.7494 -13.4179,24.4161 -5.832,6.6666 -12.9734,11.7519 -21.4161,15.2519 -8.4453,3.5 -18.056,5.2481 -28.832,5.2481 -10.8907,0 -20.584,-1.7481 -29.084,-5.2481 -8.5,-3.5 -15.6666,-8.5853 -21.5,-15.2519 -5.8333,-6.6667 -10.3067,-14.8041 -13.416,-24.4161 -3.112,-9.6093 -4.668,-20.4719 -4.668,-32.5839 0,-12 1.556,-22.8054 4.668,-32.4161 3.1093,-9.6106 7.5827,-17.7493 13.416,-24.416 5.8334,-6.6666 13,-11.7766 21.5,-15.334 8.5,-3.5546 18.1933,-5.3339 29.084,-5.3339 z"
         style="fill:#f4f0eb;fill-opacity:1"
         id="path35" />
      <path
         d="M 1274.3735,1525.0279 V 1767.86 h 146.334 v -45 h -90 v -197.8321 z"
         style="fill:#f4f0eb;fill-opacity:1"
         id="path34" />
      <path
         d="m 1103.0414,1525.0279 -94,242.8321 h 44 c 4.6667,0 8.61,-1.2481 11.834,-3.7481 3.2214,-2.5 5.388,-5.306 6.5,-8.418 l 14.334,-42.3339 h 92.332 l 14.334,42.3339 c 1.2214,3.5574 3.4173,6.4727 6.584,8.75 3.1667,2.2774 7.1914,3.4161 12.082,3.4161 h 43.668 l -94,-242.8321 z m 28.834,50 c 1.888,6.6667 3.806,12.8607 5.75,18.5821 1.944,5.724 3.6387,10.6966 5.084,14.9179 l 22.332,66.5 h -66.332 l 22.332,-66.1679 c 1.6667,-4.2214 3.4434,-9.2214 5.334,-15 1.888,-5.776 3.7214,-12.0534 5.5,-18.8321 z"
         style="fill:#f4f0eb;fill-opacity:1"
         id="path33" />
      <path
         d="M 810.04535,1525.0279 V 1767.86 h 97 c 14.55467,0 27.4987,-1.8594 38.83203,-5.5821 11.33334,-3.7226 20.85999,-8.8893 28.58399,-15.5 7.72133,-6.6106 13.58398,-14.3593 17.58398,-23.25 4,-8.888 6,-18.5006 6,-28.834 0,-13.6666 -3.83333,-24.8599 -11.5,-33.5839 -7.66666,-8.7214 -19.5,-15.0254 -35.5,-18.9161 7.33334,-2.6666 13.60803,-5.8053 18.83203,-9.416 5.22134,-3.6106 9.50066,-7.6386 12.83399,-12.084 3.33333,-4.4426 5.77665,-9.1926 7.33398,-14.25 1.55467,-5.0546 2.33203,-10.3046 2.33203,-15.75 0,-10 -1.69598,-19.054 -5.08398,-27.166 -3.39067,-8.1093 -8.80538,-15.0013 -16.24805,-20.6679 -7.44533,-5.6667 -17.05798,-10.0541 -28.83398,-13.1661 -11.77867,-3.1093 -26.05799,-4.666 -42.83399,-4.666 z m 56.33203,42.166 h 33 c 6.33334,0 11.80597,0.5 16.41797,1.5 4.60934,1 8.41602,2.6667 11.41602,5 3,2.3334 5.22068,5.4167 6.66601,9.25 1.44267,3.8334 2.16797,8.6401 2.16797,14.4161 0,5.8906 -0.91666,10.7799 -2.75,14.6679 -1.83333,3.8907 -4.5,6.9447 -8,9.166 -3.5,2.224 -7.75,3.7781 -12.75,4.6661 -5,0.8906 -10.61265,1.3339 -16.83398,1.3339 h -29.33399 z m 0,97.6661 h 39.33399 c 7.10933,0 12.99935,0.6666 17.66601,2 4.66667,1.3333 8.41862,3.2253 11.25196,5.6679 2.83333,2.4454 4.83333,5.4454 6,9 1.16666,3.5574 1.74804,7.5574 1.74804,12 0,3.8907 -0.5,7.724 -1.5,11.5 -1,3.7787 -2.83333,7.166 -5.5,10.166 -2.66666,3 -6.36069,5.446 -11.08203,7.334 -4.724,1.8907 -10.80733,2.8321 -18.25,2.8321 h -39.66797 z"
         style="fill:#f4f0eb;fill-opacity:1"
         id="path32" />
      <path
         d="M 558.04535,1525.0279 V 1767.86 h 49.66797 v -130.1661 c 0,-3.5546 -0.11265,-7.36 -0.33398,-11.416 -0.224,-4.056 -0.50065,-8.1939 -0.83399,-12.4179 l 114.5,144.6679 c 2.776,3.5574 5.66797,5.9987 8.66797,7.3321 3,1.3333 6.66667,2 11,2 h 29.33203 v -242.8321 h -49.66601 v 128.5 c 0,3.8907 0.10998,8.0267 0.33398,12.416 0.22134,4.3894 0.55467,8.9174 1,13.584 l -115.33398,-145.834 c -1.55734,-1.888 -2.94468,-3.388 -4.16602,-4.5 -1.224,-1.1093 -2.50065,-1.9719 -3.83398,-2.5839 -1.33334,-0.6094 -2.83334,-1.026 -4.5,-1.25 -1.66667,-0.2214 -3.72335,-0.3321 -6.16602,-0.3321 z"
         style="fill:#f4f0eb"
         id="path31" />
      <path
         d="m 456.38324,1525.026 v 242.834 h 56.66602 v -242.834 z"
         style="fill:#f4f0eb"
         id="path30" />
      <path
         d="M 265.71723,1525.0279 V 1767.86 h 56.66797 v -94.5 h 83 v -43.5 h -83 v -61.5 h 99.66601 v -43.3321 z"
         style="fill:#f4f0eb"
         id="path29" />
      <path
         d="m 856.05121,655.27402 c -14.2925,-8.3e-4 -28.5849,5.44952 -39.49023,16.35352 l -4.29102,4.28906 -248.09179,248.0918 123.68554,123.6953 247.94532,247.9531 v -248.289 l -96.41602,-96.42581 c -39.81467,-39.81867 -39.81209,-104.3715 0.004,-144.1875 l 56.14257,-56.13867 c 21.812,-21.81067 21.81262,-57.17371 0.002,-78.98438 -10.90467,-10.90466 -25.19774,-16.35659 -39.49024,-16.35742 z"
         style="fill:#f4f0eb"
         id="path28" />
      <path
         d="m 896.48481,880.47129 h 140.48439 l -70.24221,70.24218 z"
         style="fill:#f4f0eb;fill-opacity:1"
         id="path27" />
      <path
         d="m 1077.6059,655.40488 c -14.2925,8.3e-4 -28.5856,5.45276 -39.4902,16.35742 -21.8107,21.81067 -21.8101,57.17371 0,78.98438 l 56.7227,56.7207 c 39.496,39.49333 39.4972,103.52806 0,143.02539 l -96.99611,97.00583 v 248.2891 l 247.94531,-247.9531 123.6855,-123.69339 -248.0917,-248.09375 -4.2911,-4.28906 c -10.9053,-10.904 -25.1977,-16.35435 -39.4902,-16.35352 z"
         style="fill:#f4f0eb"
         id="path26" />
      <path
         d="m 1338.9536,458.46543 -123.2032,123.21875 80.1524,80.14648 c 24.188,24.18667 24.1912,63.40247 0.01,87.5918 l 124.1524,124.13476 43.791,-43.78906 c 68.0213,-68.02533 68.0302,-178.3097 0.019,-246.3457 l -0.9863,-0.98633 z"
         style="fill:#f4f0eb"
         id="path25" />
      <path
         d="m 997.83051,117.22715 v 246.54492 l 174.13669,174.1289 123.2129,-123.21875 z"
         style="fill:#f4f0eb;fill-opacity:1"
         id="path24" />
      <path
         d="M 935.8266,117.09433 638.47699,414.55136 761.68793,537.77207 935.8266,363.64121 Z"
         style="fill:#f4f0eb;fill-opacity:1"
         id="path23" />
      <path
         d="m 594.70356,458.33261 -123.93164,123.97266 -0.98633,0.98633 c -68.01067,68.036 -68.0018,178.32037 0.0195,246.3457 l 43.79101,43.78906 124.15235,-124.13476 c -24.18533,-24.18933 -24.18214,-63.40513 0.006,-87.5918 l 80.15234,-80.14844 z"
         style="fill:#f4f0eb"
         id="path22" />
    </g>
  </g>
</svg>
