<?xml version="1.0" encoding="UTF-8" standalone="no"?>
<!-- Created with Inkscape (http://www.inkscape.org/) -->

<svg
   version="1.1"
   id="svg1"
   width="1920"
   height="1920"
   viewBox="0 0 1920 1920"
   sodipodi:docname="Logo_Principal.svg"
   inkscape:version="1.4.3 (0d15f75, 2025-12-25)"
   xmlns:inkscape="http://www.inkscape.org/namespaces/inkscape"
   xmlns:sodipodi="http://sodipodi.sourceforge.net/DTD/sodipodi-0.dtd"
   xmlns="http://www.w3.org/2000/svg"
   xmlns:svg="http://www.w3.org/2000/svg">
  <defs
     id="defs1" />
  <sodipodi:namedview
     id="namedview1"
     pagecolor="#ffffff"
     bordercolor="#111111"
     borderopacity="1"
     inkscape:showpageshadow="0"
     inkscape:pageopacity="0"
     inkscape:pagecheckerboard="1"
     inkscape:deskcolor="#d1d1d1"
     inkscape:zoom="0.30885417"
     inkscape:cx="958.38111"
     inkscape:cy="960"
     inkscape:window-width="1440"
     inkscape:window-height="837"
     inkscape:window-x="-8"
     inkscape:window-y="-8"
     inkscape:window-maximized="1"
     inkscape:current-layer="group-MC6">
    <inkscape:page
       x="0"
       y="0"
       inkscape:label="1"
       id="page1"
       width="1920"
       height="1920"
       margin="140.448 249.78667 126.12 262.22266"
       bleed="0" />
  </sodipodi:namedview>
  <g
     id="g1"
     inkscape:groupmode="layer"
     inkscape:label="1">
    <g
       id="group-MC0">
      <g
         id="group-MC1" />
    </g>
    <g
       id="group-MC2">
      <g
         id="group-MC3" />
    </g>
    <g
       id="group-MC4">
      <g
         id="group-MC5" />
    </g>
    <g
       id="group-MC6"
       transform="translate(-9.7133221,16.18887)">
      <g
         id="g21"
         transform="translate(3.4961892,-9.0250868)">
        <g
           id="g20">
          <g
             id="g19">
            <g
               id="g18">
              <g
                 id="g17">
                <g
                   id="g16">
                  <g
                     id="g15">
                    <path
                       id="path2"
                       d="m 0,0 v -184.909 l -130.603,-130.598 -92.409,92.415 z"
                       style="fill:#0b0f14;fill-opacity:1;fill-rule:nonzero;stroke:none"
                       transform="matrix(1.3333333,0,0,-1.3333333,932.33,126.12027)" />
                    <path
                       id="path3"
                       d="m 0,0 -42.107,-42.104 c -29.862,-29.862 -29.864,-78.277 -0.003,-108.141 l 72.312,-72.319 v -186.217 l -185.959,185.965 -92.764,92.771 186.069,186.069 3.218,3.217 c 16.358,16.356 42.878,16.354 59.235,-0.003 v 0 C 16.359,42.88 16.359,16.358 0,0"
                       style="fill:#0b0f14;fill-opacity:1;fill-rule:nonzero;stroke:none"
                       transform="matrix(1.3333333,0,0,-1.3333333,892.044,759.64093)" />
                    <path
                       id="path4"
                       d="m 0,0 v 0 l -93.114,-93.102 -32.843,32.842 v 0 c -51.016,51.019 -51.023,133.732 -0.015,184.759 l 0.739,0.74 92.949,92.979 L 60.118,125.804 0.004,65.693 C -18.137,47.553 -18.139,18.142 0,0"
                       style="fill:#0b0f14;fill-opacity:1;fill-rule:nonzero;stroke:none"
                       transform="matrix(1.3333333,0,0,-1.3333333,634.2524,758.31587)" />
                    <path
                       id="path5"
                       d="m 0,0 v -184.909 l 130.603,-130.597 92.409,92.414 z"
                       style="fill:#0b0f14;fill-opacity:1;fill-rule:nonzero;stroke:none"
                       transform="matrix(1.3333333,0,0,-1.3333333,994.33467,126.25147)" />
                    <path
                       id="path6"
                       d="m 0,0 42.542,-42.54 c 29.622,-29.62 29.624,-77.646 0.004,-107.269 l -72.748,-72.755 v -186.217 l 185.959,185.965 92.764,92.771 L 62.452,56.024 59.234,59.241 C 42.876,75.597 16.356,75.595 -0.001,59.238 v 0 C -16.359,42.88 -16.359,16.358 0,0"
                       style="fill:#0b0f14;fill-opacity:1;fill-rule:nonzero;stroke:none"
                       transform="matrix(1.3333333,0,0,-1.3333333,1034.6208,759.77213)" />
                    <path
                       id="path7"
                       d="m 0,0 v 0 l 93.114,-93.102 32.843,32.842 v 0 c 51.016,51.019 51.023,133.732 0.015,184.759 l -0.739,0.74 -92.949,92.979 -92.402,-92.414 60.114,-60.111 C 18.137,47.553 18.139,18.142 0,0"
                       style="fill:#0b0f14;fill-opacity:1;fill-rule:nonzero;stroke:none"
                       transform="matrix(1.3333333,0,0,-1.3333333,1292.4124,758.44707)" />
                    <path
                       id="path8"
                       d="M 0,0 -52.682,-52.682 -105.363,0 Z"
                       style="fill:#0b0f14;fill-opacity:1;fill-rule:nonzero;stroke:none"
                       transform="matrix(1.3333333,0,0,-1.3333333,1033.4732,889.49587)" />
                    <path
                       id="path9"
                       d="m 0,0 v -32.5 h -74.75 v -46.125 h 62.25 v -32.625 h -62.25 v -70.875 h -42.5 V 0 Z"
                       style="fill:#0b0f14;fill-opacity:1;fill-rule:nonzero;stroke:none"
                       transform="matrix(1.3333333,0,0,-1.3333333,418.55533,1534.0521)" />
                    <path
                       id="path10"
                       d="m 382.165,107.336 h -42.5 v 182.125 h 42.5 z"
                       style="fill:#0b0f14;fill-opacity:1;fill-rule:nonzero;stroke:none"
                       transform="matrix(1.3333333,0,0,-1.3333333,0,1920)" />
                    <path
                       id="path11"
                       d="m 0,0 c 1.25,-0.168 2.375,-0.48 3.375,-0.937 1,-0.459 1.957,-1.106 2.875,-1.938 0.916,-0.834 1.957,-1.959 3.125,-3.375 l 86.5,-109.375 c -0.334,3.5 -0.584,6.895 -0.75,10.187 -0.168,3.292 -0.25,6.395 -0.25,9.313 V 0.25 h 37.25 v -182.125 h -22 c -3.25,0 -6,0.5 -8.25,1.5 -2.25,1 -4.418,2.832 -6.5,5.5 L 9.5,-66.375 c 0.25,-3.168 0.457,-6.271 0.625,-9.313 0.166,-3.042 0.25,-5.896 0.25,-8.562 v -97.625 h -37.25 V 0.25 h 22.25 C -2.793,0.25 -1.25,0.166 0,0"
                       style="fill:#0b0f14;fill-opacity:1;fill-rule:nonzero;stroke:none"
                       transform="matrix(1.3333333,0,0,-1.3333333,590.38347,1534.3855)" />
                    <path
                       id="path12"
                       d="m 0,0 v -45.375 h 29.75 c 5.582,0 10.145,0.707 13.688,2.125 3.541,1.416 6.312,3.25 8.312,5.5 2,2.25 3.375,4.791 4.125,7.625 0.75,2.832 1.125,5.707 1.125,8.625 0,3.332 -0.437,6.332 -1.312,9 -0.875,2.666 -2.375,4.916 -4.5,6.75 C 49.063,-3.918 46.25,-2.5 42.75,-1.5 39.25,-0.5 34.832,0 29.5,0 Z m 0,28.25 h 22 c 4.666,0 8.875,0.332 12.625,1 3.75,0.666 6.938,1.832 9.563,3.5 2.625,1.666 4.625,3.957 6,6.875 1.375,2.916 2.062,6.582 2.062,11 0,4.332 -0.543,7.938 -1.625,10.813 -1.084,2.875 -2.75,5.187 -5,6.937 -2.25,1.75 -5.105,3 -8.562,3.75 C 33.604,72.875 29.5,73.25 24.75,73.25 H 0 Z m -42.25,-105.5 v 182.125 h 67 c 12.582,0 23.291,-1.168 32.125,-3.5 C 65.707,99.041 72.916,95.75 78.5,91.5 84.082,87.25 88.144,82.082 90.687,76 93.228,69.916 94.5,63.125 94.5,55.625 94.5,51.541 93.916,47.604 92.75,43.813 91.582,40.02 89.75,36.457 87.25,33.125 84.75,29.791 81.541,26.77 77.625,24.062 73.707,21.354 69,19 63.5,17 75.5,14.082 84.375,9.354 90.125,2.813 c 5.75,-6.543 8.625,-14.938 8.625,-25.188 0,-7.75 -1.5,-14.959 -4.5,-21.625 -3,-6.668 -7.397,-12.48 -13.188,-17.438 -5.793,-4.958 -12.937,-8.833 -21.437,-11.625 -8.5,-2.792 -18.209,-4.187 -29.125,-4.187 z"
                       style="fill:#0b0f14;fill-opacity:1;fill-rule:nonzero;stroke:none"
                       transform="matrix(1.3333333,0,0,-1.3333333,862.88213,1673.8855)" />
                    <path
                       id="path13"
                       d="M 0,0 H 49.75 L 33,49.875 C 31.916,53.041 30.645,56.77 29.187,61.063 27.729,65.354 26.291,70 24.875,75 23.541,69.916 22.166,65.207 20.75,60.875 19.332,56.541 18,52.791 16.75,49.625 Z M 117,-69.625 H 84.25 c -3.668,0 -6.687,0.854 -9.062,2.562 -2.375,1.708 -4.022,3.895 -4.938,6.563 L 59.5,-28.75 H -9.75 L -20.5,-60.5 c -0.834,-2.334 -2.459,-4.438 -4.875,-6.313 -2.418,-1.875 -5.375,-2.812 -8.875,-2.812 h -33 L 3.25,112.5 H 46.5 Z"
                       style="fill:#0b0f14;fill-opacity:1;fill-rule:nonzero;stroke:none"
                       transform="matrix(1.3333333,0,0,-1.3333333,1095.2123,1684.0521)" />
                    <path
                       id="path14"
                       d="M 0,0 H 67.5 V -33.75 H -42.25 V 148.375 H 0 Z"
                       style="fill:#0b0f14;fill-opacity:1;fill-rule:nonzero;stroke:none"
                       transform="matrix(1.3333333,0,0,-1.3333333,1327.2109,1731.8855)" />
                    <path
                       id="path15"
                       d="m 0,0 c 0,9 -1.168,17.104 -3.5,24.312 -2.334,7.208 -5.688,13.313 -10.063,18.313 -4.374,5 -9.73,8.832 -16.062,11.5 -6.334,2.666 -13.543,4 -21.625,4 -8.168,0 -15.438,-1.334 -21.813,-4 -6.375,-2.668 -11.75,-6.5 -16.125,-11.5 -4.375,-5 -7.73,-11.105 -10.062,-18.313 -2.334,-7.208 -3.5,-15.312 -3.5,-24.312 0,-9.084 1.166,-17.23 3.5,-24.437 2.332,-7.209 5.687,-13.313 10.062,-18.313 4.375,-5 9.75,-8.813 16.125,-11.438 6.375,-2.625 13.645,-3.937 21.813,-3.937 8.082,0 15.291,1.312 21.625,3.937 6.332,2.625 11.688,6.438 16.062,11.438 4.375,5 7.729,11.104 10.063,18.313 C -1.168,-17.23 0,-9.084 0,0 m 43.25,0 c 0,-13.168 -2.271,-25.418 -6.812,-36.75 C 31.895,-48.084 25.5,-57.938 17.25,-66.313 9,-74.688 -0.937,-81.25 -12.563,-86 c -11.624,-4.75 -24.521,-7.125 -38.687,-7.125 -14.168,0 -27.084,2.375 -38.75,7.125 -11.668,4.75 -21.646,11.312 -29.938,19.687 -8.292,8.375 -14.708,18.229 -19.249,29.563 C -143.73,-25.418 -146,-13.168 -146,0 c 0,13.166 2.27,25.416 6.813,36.75 4.541,11.332 10.957,21.166 19.249,29.5 8.292,8.332 18.27,14.875 29.938,19.625 11.666,4.75 24.582,7.125 38.75,7.125 14.166,0 27.063,-2.396 38.687,-7.187 C -0.937,81.02 9,74.457 17.25,66.125 25.5,57.791 31.895,47.957 36.438,36.625 40.979,25.291 43.25,13.082 43.25,0"
                       style="fill:#0b0f14;fill-opacity:1;fill-rule:nonzero;stroke:none"
                       transform="matrix(1.3333333,0,0,-1.3333333,1612.5456,1655.3855)" />
                  </g>
                </g>
              </g>
            </g>
          </g>
        </g>
      </g>
    </g>
  </g>
</svg>
